<?xml version="1.0" ?><svg xmlns="http://www.w3.org/2000/svg" width="200" height="200" viewBox="0 0 200 200" fill="none"><path d="M108.35 176C152.532 176 188.35 140.183 188.35 96C188.35 51.8172 152.532 16 108.35 16C64.1668 16 28.3496 51.8172 28.3496 96C28.3496 140.183 64.1668 176 108.35 176Z" fill="#FFFAF3"/><path d="M133.36 131.53C131.92 133 131.27 135.1 131.61 137.17L137.78 174.81C138.22 177.5 137.05 179.86 135.19 181.17C133.45 182.41 131.1 182.72 128.93 181.53L96.5896 163.76C95.8296 163.35 95.0196 163.1 94.1896 163.04C93.0796 162.95 91.9396 163.19 90.9096 163.76L58.5796 181.53C55.9496 182.99 53.0396 182.19 51.2996 180.24C50.0496 178.88 49.3696 176.94 49.7296 174.81L55.8996 137.17C56.2396 135.1 55.5796 132.99 54.1496 131.53L27.9896 104.87C24.3696 101.18 26.3696 94.75 31.3696 93.99L67.5196 88.5C69.4996 88.2 71.2296 86.89 72.1096 85.01L84.5896 58.57C86.6996 61.27 89.9796 63.02 93.6796 63.02C94.4796 63.02 95.2696 62.93 96.0296 62.78C98.7996 62.21 101.2 60.63 102.85 58.47L115.38 85.02C116.27 86.9 117.99 88.21 119.97 88.51L156.12 94C158.29 94.34 159.9 95.74 160.73 97.53C161.8 99.85 161.55 102.8 159.5 104.89L133.34 131.55L133.36 131.53Z" fill="#FFC522"/><path d="M93.6904 63.01L94.1904 119.03L116.64 87.08L103.16 59.1C103.16 59.1 101.59 60.46 98.9704 61.73C96.3504 63 93.6904 63.01 93.6904 63.01Z" fill="#E5A71C"/><path d="M94.2695 119.57L160.74 97.51C160.74 97.51 163.13 100.25 160.74 103.12C158.35 105.99 132.75 132.27 132.75 132.27L131.73 134.49L94.2795 119.57H94.2695Z" fill="#E5A71C"/><path d="M93.9799 121.5L94.2699 162.29L58.5899 181.54C58.5899 181.54 55.1599 182.43 53.2599 181.71C51.3599 180.99 50.9199 179.77 50.9199 179.77L94.1999 119.03L93.9899 121.5H93.9799Z" fill="#E5A71C"/><path d="M93.2497 119.64L26.3497 98.77C26.3497 98.77 25.3497 102.1 26.3497 103.05C27.3497 104 53.2597 130.62 53.2597 130.62C53.2597 130.62 55.2897 132.41 55.3297 133.21C55.3697 134.01 55.7997 134.5 55.7997 134.5L93.2597 119.65L93.2497 119.64Z" fill="#E5A71C"/><path d="M94.1904 120.55L94.2704 162.29L130.6 182.29C130.6 182.29 130.42 183.58 132.39 182.29C134.36 181 135.19 181.18 135.19 181.18L94.1904 120.55Z" fill="#E5A71C"/><path d="M133.36 131.53C131.92 133 131.27 135.1 131.61 137.17L137.78 174.81C138.22 177.5 137.05 179.86 135.19 181.17C133.45 182.41 131.1 182.72 128.93 181.53L96.5896 163.76C95.8296 163.35 95.0196 163.1 94.1896 163.04C93.0796 162.95 91.9396 163.19 90.9096 163.76L58.5796 181.53C55.9496 182.99 53.0396 182.19 51.2996 180.24C50.0496 178.88 49.3696 176.94 49.7296 174.81L55.8996 137.17C56.2396 135.1 55.5796 132.99 54.1496 131.53L27.9896 104.87C24.3696 101.18 26.3696 94.75 31.3696 93.99L67.5196 88.5C69.4996 88.2 71.2296 86.89 72.1096 85.01L84.5896 58.57C86.6996 61.27 89.9796 63.02 93.6796 63.02C94.4796 63.02 95.2696 62.93 96.0296 62.78C98.7996 62.21 101.2 60.63 102.85 58.47L115.38 85.02C116.27 86.9 117.99 88.21 119.97 88.51L156.12 94C158.29 94.34 159.9 95.74 160.73 97.53C161.8 99.85 161.55 102.8 159.5 104.89L133.34 131.55L133.36 131.53Z" stroke="#333333" stroke-width="1.5" stroke-linecap="round" stroke-linejoin="round"/><path d="M105.19 51.51C105.19 54.13 104.33 56.52 102.86 58.46C101.21 60.63 98.8102 62.2 96.0402 62.77C95.2802 62.92 94.5002 63.01 93.6902 63.01C89.9902 63.01 86.7102 61.27 84.6002 58.56C83.1002 56.62 82.2002 54.17 82.2002 51.51C82.2002 45.16 87.3402 40.01 93.7002 40.01C100.06 40.01 105.2 45.15 105.2 51.51H105.19Z" fill="#CC362D"/><path d="M101.16 43.79C101.81 45.23 102.18 46.83 102.18 48.52C102.18 51.14 101.32 53.53 99.8504 55.47C98.2004 57.64 95.8004 59.21 93.0304 59.78C92.2704 59.93 91.4904 60.02 90.6804 60.02C87.8104 60.02 85.2004 58.96 83.1904 57.23C83.5704 58.07 84.0404 58.85 84.5904 59.57C86.7004 62.27 89.9804 64.02 93.6804 64.02C94.4804 64.02 95.2704 63.93 96.0304 63.78C98.8004 63.21 101.2 61.63 102.85 59.47C104.32 57.53 105.18 55.14 105.18 52.52C105.18 49.02 103.62 45.9 101.16 43.79Z" fill="#B72C29"/><path d="M105.19 51.51C105.19 54.13 104.33 56.52 102.86 58.46C101.21 60.63 98.8102 62.2 96.0402 62.77C95.2802 62.92 94.5002 63.01 93.6902 63.01C89.9902 63.01 86.7102 61.27 84.6002 58.56C83.1002 56.62 82.2002 54.17 82.2002 51.51C82.2002 45.16 87.3402 40.01 93.7002 40.01C100.06 40.01 105.2 45.15 105.2 51.51H105.19Z" stroke="#333333" stroke-width="1.5" stroke-linecap="round" stroke-linejoin="round"/><path d="M93.2098 38.54C95.3251 38.54 97.0399 34.6807 97.0399 29.92C97.0399 25.1593 95.3251 21.3 93.2098 21.3C91.0946 21.3 89.3799 25.1593 89.3799 29.92C89.3799 34.6807 91.0946 38.54 93.2098 38.54Z" stroke="#CC362D" stroke-width="1.5" stroke-linecap="round" stroke-linejoin="round"/><path d="M155.359 83.66C154.189 84.83 152.279 84.83 151.119 83.66L148.999 81.54L146.879 83.66C145.709 84.83 143.799 84.83 142.639 83.66C141.479 82.49 141.469 80.58 142.639 79.42L144.759 77.3L142.639 75.18C141.469 74.01 141.469 72.1 142.639 70.94C143.809 69.78 145.719 69.77 146.879 70.94L148.999 73.06L151.119 70.94C152.289 69.77 154.199 69.77 155.359 70.94C155.939 71.52 156.239 72.3 156.239 73.06C156.239 73.82 155.939 74.6 155.359 75.18L153.239 77.3L155.359 79.42C155.939 80 156.239 80.78 156.239 81.54C156.239 82.3 155.939 83.08 155.359 83.66Z" fill="#FDF0DF"/><path d="M59.6194 65.92C60.7894 67.09 60.7894 69 59.6194 70.17L57.4994 72.29L59.6194 74.41C60.7894 75.58 60.7894 77.49 59.6194 78.66C58.4494 79.83 56.5394 79.83 55.3694 78.66L53.2494 76.54L51.1295 78.66C49.9595 79.83 48.0495 79.83 46.8795 78.66C45.7095 77.49 45.7095 75.58 46.8795 74.41L48.9994 72.29L46.8795 70.17C45.7095 69 45.7095 67.09 46.8795 65.92C47.4595 65.34 48.2394 65.04 48.9994 65.04C49.7594 65.04 50.5394 65.34 51.1194 65.92L53.2394 68.04L55.3594 65.92C55.9394 65.34 56.7194 65.04 57.4794 65.04C58.2394 65.04 59.0194 65.34 59.5994 65.92H59.6194Z" fill="#FDF0DF"/><path d="M157.12 158.42C157.83 159.13 157.83 160.29 157.12 161L155.83 162.29L157.12 163.58C157.83 164.29 157.83 165.45 157.12 166.16C156.41 166.87 155.25 166.87 154.54 166.16L153.25 164.87L151.96 166.16C151.25 166.87 150.09 166.87 149.38 166.16C148.67 165.45 148.67 164.29 149.38 163.58L150.67 162.29L149.38 161C148.67 160.29 148.67 159.13 149.38 158.42C149.73 158.07 150.21 157.89 150.67 157.89C151.13 157.89 151.61 158.07 151.96 158.42L153.25 159.71L154.54 158.42C154.89 158.07 155.37 157.89 155.83 157.89C156.29 157.89 156.77 158.07 157.12 158.42Z" fill="#FDF0DF"/><path d="M38.6197 165.92C39.9697 167.27 39.9697 169.48 38.6197 170.83L36.1597 173.29L38.6197 175.75C39.9697 177.1 39.9697 179.31 38.6197 180.66C37.2697 182.01 35.0596 182.01 33.7096 180.66L31.2497 178.2L28.7897 180.66C27.4397 182.01 25.2297 182.01 23.8797 180.66C22.5297 179.31 22.5297 177.1 23.8797 175.75L26.3396 173.29L23.8797 170.83C22.5297 169.48 22.5297 167.27 23.8797 165.92C24.5497 165.25 25.4496 164.9 26.3396 164.9C27.2196 164.9 28.1297 165.24 28.7997 165.92L31.2596 168.38L33.7197 165.92C34.3897 165.25 35.2897 164.9 36.1797 164.9C37.0597 164.9 37.9696 165.24 38.6396 165.92H38.6197Z" fill="#FDF0DF"/><path d="M155.359 83.66C154.189 84.83 152.279 84.83 151.119 83.66L148.999 81.54L146.879 83.66C145.709 84.83 143.799 84.83 142.639 83.66C141.479 82.49 141.469 80.58 142.639 79.42L144.759 77.3L142.639 75.18C141.469 74.01 141.469 72.1 142.639 70.94C143.809 69.78 145.719 69.77 146.879 70.94L148.999 73.06L151.119 70.94C152.289 69.77 154.199 69.77 155.359 70.94C155.939 71.52 156.239 72.3 156.239 73.06C156.239 73.82 155.939 74.6 155.359 75.18L153.239 77.3L155.359 79.42C155.939 80 156.239 80.78 156.239 81.54C156.239 82.3 155.939 83.08 155.359 83.66Z" stroke="#333333" stroke-width="1.5" stroke-linecap="round" stroke-linejoin="round"/><path d="M59.6194 65.92C60.7894 67.09 60.7894 69 59.6194 70.17L57.4994 72.29L59.6194 74.41C60.7894 75.58 60.7894 77.49 59.6194 78.66C58.4494 79.83 56.5394 79.83 55.3694 78.66L53.2494 76.54L51.1295 78.66C49.9595 79.83 48.0495 79.83 46.8795 78.66C45.7095 77.49 45.7095 75.58 46.8795 74.41L48.9994 72.29L46.8795 70.17C45.7095 69 45.7095 67.09 46.8795 65.92C47.4595 65.34 48.2394 65.04 48.9994 65.04C49.7594 65.04 50.5394 65.34 51.1194 65.92L53.2394 68.04L55.3594 65.92C55.9394 65.34 56.7194 65.04 57.4794 65.04C58.2394 65.04 59.0194 65.34 59.5994 65.92H59.6194Z" stroke="#333333" stroke-width="1.5" stroke-linecap="round" stroke-linejoin="round"/><path d="M157.12 158.42C157.83 159.13 157.83 160.29 157.12 161L155.83 162.29L157.12 163.58C157.83 164.29 157.83 165.45 157.12 166.16C156.41 166.87 155.25 166.87 154.54 166.16L153.25 164.87L151.96 166.16C151.25 166.87 150.09 166.87 149.38 166.16C148.67 165.45 148.67 164.29 149.38 163.58L150.67 162.29L149.38 161C148.67 160.29 148.67 159.13 149.38 158.42C149.73 158.07 150.21 157.89 150.67 157.89C151.13 157.89 151.61 158.07 151.96 158.42L153.25 159.71L154.54 158.42C154.89 158.07 155.37 157.89 155.83 157.89C156.29 157.89 156.77 158.07 157.12 158.42Z" stroke="#333333" stroke-width="1.5" stroke-linecap="round" stroke-linejoin="round"/><path d="M38.6197 165.92C39.9697 167.27 39.9697 169.48 38.6197 170.83L36.1597 173.29L38.6197 175.75C39.9697 177.1 39.9697 179.31 38.6197 180.66C37.2697 182.01 35.0596 182.01 33.7096 180.66L31.2497 178.2L28.7897 180.66C27.4397 182.01 25.2297 182.01 23.8797 180.66C22.5297 179.31 22.5297 177.1 23.8797 175.75L26.3396 173.29L23.8797 170.83C22.5297 169.48 22.5297 167.27 23.8797 165.92C24.5497 165.25 25.4496 164.9 26.3396 164.9C27.2196 164.9 28.1297 165.24 28.7997 165.92L31.2596 168.38L33.7197 165.92C34.3897 165.25 35.2897 164.9 36.1797 164.9C37.0597 164.9 37.9696 165.24 38.6396 165.92H38.6197Z" stroke="#333333" stroke-width="1.5" stroke-linecap="round" stroke-linejoin="round"/><path d="M160 183.29C161.657 183.29 163 181.947 163 180.29C163 178.633 161.657 177.29 160 177.29C158.343 177.29 157 178.633 157 180.29C157 181.947 158.343 183.29 160 183.29Z" fill="#CC362D"/><path d="M15 89.29C16.6569 89.29 18 87.9468 18 86.29C18 84.6331 16.6569 83.29 15 83.29C13.3431 83.29 12 84.6331 12 86.29C12 87.9468 13.3431 89.29 15 89.29Z" fill="#CC362D"/><path d="M160 183.29C161.657 183.29 163 181.947 163 180.29C163 178.633 161.657 177.29 160 177.29C158.343 177.29 157 178.633 157 180.29C157 181.947 158.343 183.29 160 183.29Z" stroke="#333333" stroke-width="1.5" stroke-linecap="round" stroke-linejoin="round"/><path d="M15 89.29C16.6569 89.29 18 87.9468 18 86.29C18 84.6331 16.6569 83.29 15 83.29C13.3431 83.29 12 84.6331 12 86.29C12 87.9468 13.3431 89.29 15 89.29Z" stroke="#333333" stroke-width="1.5" stroke-linecap="round" stroke-linejoin="round"/><path d="M30 52.29C32.2091 52.29 34 50.4991 34 48.29C34 46.0808 32.2091 44.29 30 44.29C27.7909 44.29 26 46.0808 26 48.29C26 50.4991 27.7909 52.29 30 52.29Z" fill="#CC362D"/><path d="M138 47.29C140.209 47.29 142 45.4991 142 43.29C142 41.0808 140.209 39.29 138 39.29C135.791 39.29 134 41.0808 134 43.29C134 45.4991 135.791 47.29 138 47.29Z" fill="#CC362D"/><path d="M33.5 148.29C35.433 148.29 37 146.723 37 144.79C37 142.857 35.433 141.29 33.5 141.29C31.567 141.29 30 142.857 30 144.79C30 146.723 31.567 148.29 33.5 148.29Z" fill="#CC362D"/><path d="M172.14 133.93C174.526 133.93 176.46 131.996 176.46 129.61C176.46 127.224 174.526 125.29 172.14 125.29C169.754 125.29 167.82 127.224 167.82 129.61C167.82 131.996 169.754 133.93 172.14 133.93Z" fill="#CC362D"/><path d="M30 52.29C32.2091 52.29 34 50.4991 34 48.29C34 46.0808 32.2091 44.29 30 44.29C27.7909 44.29 26 46.0808 26 48.29C26 50.4991 27.7909 52.29 30 52.29Z" fill="#03544D"/><path d="M138 47.29C140.209 47.29 142 45.4991 142 43.29C142 41.0808 140.209 39.29 138 39.29C135.791 39.29 134 41.0808 134 43.29C134 45.4991 135.791 47.29 138 47.29Z" fill="#03544D"/><path d="M33.5 148.29C35.433 148.29 37 146.723 37 144.79C37 142.857 35.433 141.29 33.5 141.29C31.567 141.29 30 142.857 30 144.79C30 146.723 31.567 148.29 33.5 148.29Z" fill="#03544D"/><path d="M172.14 133.93C174.526 133.93 176.46 131.996 176.46 129.61C176.46 127.224 174.526 125.29 172.14 125.29C169.754 125.29 167.82 127.224 167.82 129.61C167.82 131.996 169.754 133.93 172.14 133.93Z" fill="#03544D"/><path d="M93.6895 63.01L94.1895 163.05" stroke="#333333" stroke-width="1.5" stroke-linecap="round" stroke-linejoin="round"/><path d="M26.3496 98.77L93.6696 119.77L160.74 97.51" stroke="#333333" stroke-width="1.5" stroke-linecap="round" stroke-linejoin="round"/><path d="M51.3096 180.25L93.6696 119.77L135.19 181.18" stroke="#333333" stroke-width="1.5" stroke-linecap="round" stroke-linejoin="round"/><path d="M55.79 134.49L93.67 119.77L131.72 134.49" stroke="#333333" stroke-width="1.5" stroke-linecap="round" stroke-linejoin="round"/><path d="M93.9397 64.24L93.6697 119.77L116.64 87.55L93.6697 119.77L69.9297 87.55" stroke="#333333" stroke-width="1.5" stroke-linecap="round" stroke-linejoin="round"/></svg>